<?xml version="1.0" encoding="utf-8"?>
<!-- Generator: Adobe Illustrator 25.2.1, SVG Export Plug-In . SVG Version: 6.00 Build 0)  -->
<svg version="1.1" id="Layer_1" xmlns="http://www.w3.org/2000/svg" xmlns:xlink="http://www.w3.org/1999/xlink" x="0px" y="0px"
	 viewBox="0 0 768.4 384.9" style="enable-background:new 0 0 768.4 384.9;" xml:space="preserve">
<style type="text/css">
	.st0{fill:#9AC4F8;}
	.st1{fill:#82BAFF;}
	.st2{fill:#70C8D6;}
	.st3{fill:#B6C2CC;}
	.st4{fill:#A4E6F7;}
	.st5{fill:#B58FEF;}
	.st6{fill:#8C6ACC;}
	.st7{fill:#263238;}
	.st8{fill:#414D53;}
	.st9{fill:#C7D3DE;}
	.st10{fill:#E8505B;}
	.st11{fill:#F14062;}
	.st12{fill:#D44C56;}
	.st13{fill:#DD3B2F;}
	.st14{fill:#E0E0E0;}
	.st15{fill:#FFBE9D;}
	.st16{fill:#EB996E;}
	.st17{fill:#FFFFFF;}
</style>
<g id="Group_1642" transform="translate(-1052.636 2529)">
	<path id="Path_29341" class="st0" d="M1645.1-2325l-10.6-14.2c-1.3-1.7-3.2-2.7-5.3-2.7h-17v-9.5h17c5.1,0,9.9,2.4,12.9,6.5
		l10.6,14.2L1645.1-2325z"/>
	<path id="Path_29342" class="st0" d="M1664.1-2204.5c0,33.2-26.9,60.1-60.2,60.2c-1.2,0-2.3,0-3.4-0.1l-1.5-0.1
		c-0.7-0.1-1.5-0.1-2.3-0.2c-0.3,0-0.5,0-0.7-0.1c-1.2-0.1-2.2-0.3-3.4-0.5c-1-0.2-2-0.4-3-0.6c-2.3-0.5-4.6-1.2-6.8-2.1
		c-0.6-0.2-1.1-0.4-1.6-0.6c-0.5-0.2-0.9-0.4-1.4-0.6c-0.6-0.3-1.4-0.6-2-0.9c-3.2-1.5-6.2-3.3-9.1-5.4c-0.5-0.3-1-0.7-1.4-1.1
		c-0.5-0.4-1.2-0.9-1.7-1.4c-1.7-1.4-3.3-2.9-4.8-4.4c-0.6-0.6-1.3-1.4-1.9-2.1c-0.5-0.5-1-1.1-1.4-1.7c-0.5-0.6-1-1.3-1.5-1.9
		c-0.6-0.8-1.2-1.6-1.8-2.4c-6.9-10-10.5-21.8-10.5-34v0c0-25,13.9-46.3,35.6-55.4c3.9-1.6,9.8-5.5,9.8-9.8v-108.5l2.1-4.4h28.1
		v112.8c0.1,1.8,0.9,3.5,2.2,4.8c2.1,2.2,4.6,3.9,7.4,5.1c0.4,0.2,0.9,0.4,1.3,0.6c1.6,0.7,3.1,1.4,4.6,2.3c0.6,0.3,1.3,0.7,1.9,1.1
		c0.8,0.5,1.6,1.1,2.4,1.6c14.3,10,23.5,26.4,24.8,45.2C1664-2207.5,1664.1-2206,1664.1-2204.5z"/>
	<path id="Path_29343" class="st1" d="M1619.4-2382.6v88c-1.5-49.1-19.9-69.7-28.2-76.6c-0.7-0.6-1.5-1.2-2-1.5v-5.6l2.1-4.4
		L1619.4-2382.6L1619.4-2382.6z"/>
	<path id="Path_29344" class="st2" d="M1663.9-2209c-1.4-18.8-10.5-35.2-24.8-45.2c-2.8-1.9-5.8-3.6-8.9-5c5.9,9,9.4,19.3,10.1,30
		c0.1,1.5,0.2,3,0.2,4.5c0.1,33.2-26.8,60.1-59.9,60.2c-9.1,0-18.1-2-26.3-6c18.7,27.4,56.2,34.5,83.6,15.7
		c16.4-11.2,26.2-29.8,26.2-49.7C1664.1-2206,1664-2207.5,1663.9-2209z"/>
	<path id="Path_29345" class="st3" d="M1626.9-2379.4c0,2.2-0.9,4.2-2.4,5.8c-1.4,1.4-3.2,2.2-5.1,2.4c-0.2,0-0.4,0-0.6,0h-28.9
		c-0.2,0-0.5,0-0.7,0c-4.2-0.4-7.5-3.9-7.5-8.2c0-2.2,0.9-4.2,2.4-5.8c1.5-1.5,3.6-2.4,5.8-2.4h28.9
		C1623.3-2387.6,1626.9-2383.9,1626.9-2379.4z"/>
	<path id="Path_29346" class="st4" d="M1618.7-2386.9c4.2,0,7.5,3.4,7.5,7.6c0,2-0.8,3.9-2.2,5.3c-1.3,1.3-2.9,2-4.7,2.2h-0.1
		c-0.2,0-0.4,0-0.5,0h-28.9c-0.2,0-0.4,0-0.6,0h-0.1c-3.9-0.3-6.9-3.6-6.9-7.5c0-2,0.8-3.9,2.2-5.3c1.4-1.4,3.3-2.2,5.4-2.2
		L1618.7-2386.9z M1618.7-2387.6h-28.9c-4.5,0-8.2,3.6-8.2,8.1c0,0,0,0.1,0,0.1c0,4.3,3.2,7.8,7.5,8.2c0.2,0,0.5,0,0.7,0h28.9
		c0.2,0,0.4,0,0.6,0c1.9-0.2,3.8-1,5.1-2.4c1.5-1.5,2.4-3.6,2.4-5.8C1626.9-2383.9,1623.3-2387.6,1618.7-2387.6
		C1618.8-2387.6,1618.8-2387.6,1618.7-2387.6L1618.7-2387.6z"/>
	<circle id="Ellipse_438" class="st2" cx="1589.2" cy="-2228.8" r="4.3"/>
	<circle id="Ellipse_439" class="st2" cx="1601.5" cy="-2213.3" r="7.7"/>
	<path id="Path_29347" class="st5" d="M1655.9-2203.6v0.2c-0.3,28.7-23.8,51.8-52.5,51.6c-13.7-0.1-26.8-5.6-36.4-15.3
		c-8.3-8.3-13.5-19.2-14.7-30.9v0c8-4.8,17.1-7.4,26.5-7.4c15.8,0.2,30.4,12.9,53.8,9.7C1640.7-2197.1,1648.6-2199.7,1655.9-2203.6z
		"/>
	<path id="Path_29348" class="st6" d="M1655.9-2203.6v0.2c-0.1,28.6-23.4,51.7-52,51.6c0,0,0,0,0,0c-14.5,0-26.1-4.5-35.5-14
		c12.1,2.1,48.4,0.5,64.8-30.2C1640.2-2196.9,1647.1-2199.1,1655.9-2203.6z"/>
	<circle id="Ellipse_440" class="st6" cx="1620.6" cy="-2184.5" r="7.8"/>
	<path id="Path_29349" class="st1" d="M1676.4-2275.5h-8.9c-0.3,0-0.6-0.3-0.6-0.6l-1.2-12.6c-1-5.6-4.7-10.4-9.9-12.8
		c-2.2-1.1-4.2-2.4-6.2-3.9c-5.3-4.1-10.1-15-12.3-20.8c-0.9-2.1,0-4.6,2.1-5.7l0.2-0.1l10.4-5.7c1.8-1,4-0.7,5.5,0.8
		c4.6,4.6,14,16,18,36C1678.8-2274,1676.4-2275.5,1676.4-2275.5z"/>
	<path id="Path_29350" class="st0" d="M1676.4-2275.5h-1.5c1.1-5.4-3.7-26.1-10.9-39.8c-10.5-19.9-17.5-17.8-24.4-16.7l10.4-5.7
		c1.8-1,4-0.7,5.5,0.8c4.6,4.6,14,16,18,36C1678.8-2274,1676.4-2275.5,1676.4-2275.5z"/>
	<circle id="Ellipse_441" class="st6" cx="1568.4" cy="-2193" r="4.3"/>
	<path id="Path_29351" class="st0" d="M1779.7-2307.6v29.7c0,1.5-1.2,2.7-2.7,2.7h-20.2v28.1c0,1.5-1.2,2.8-2.7,2.8
		c-1.5,0-2.8-1.2-2.8-2.7c0,0,0-0.1,0-0.1v-30.8c0-1.5,1.2-2.7,2.7-2.7h20.2v-26.9c0-1,0.5-1.9,1.4-2.4c0.4-0.2,0.9-0.4,1.3-0.4
		C1778.4-2310.3,1779.7-2309.1,1779.7-2307.6z"/>
	<path id="Path_29352" class="st1" d="M1779.7-2307.6v29.7c0,1.5-1.2,2.7-2.7,2.7h-20.2v25.8h-2.3c0,0-0.1-26.9,0-28
		c0.2-1.1,20.6,0.6,22.7-2.1c2.2-2.7,0.6-6.6,0.7-17.2c0.1-7.7-0.4-11.4-2.2-13.3c0.4-0.2,0.9-0.4,1.3-0.4
		C1778.4-2310.3,1779.7-2309.1,1779.7-2307.6z"/>
	<path id="Path_29353" class="st0" d="M1737.4-2297.2v50.2c0,1.5-1.3,2.7-2.8,2.7c-1.5,0-2.7-1.2-2.7-2.7v-43l-26.9,29.7
		c-0.9,1-2.4,1.2-3.5,0.5c-0.1-0.1-0.3-0.2-0.4-0.3c-1.1-1-1.2-2.8-0.2-3.9l31.7-35c0.1-0.1,0.2-0.2,0.4-0.3
		c1.2-0.9,2.9-0.7,3.8,0.5C1737.2-2298.4,1737.4-2297.8,1737.4-2297.2L1737.4-2297.2z"/>
	<path id="Path_29354" class="st1" d="M1731.8-2279.6v-10.4l-26.9,29.7c-0.9,1-2.4,1.2-3.5,0.5l31.2-35.1L1731.8-2279.6z"/>
	<path id="Path_29355" class="st1" d="M1737.4-2297.2v50h-2.5c0,0,0.7-41.2,0-46.9c-0.2-1.9-0.9-3.7-2-5.2c1.2-0.9,3-0.7,3.9,0.6
		C1737.2-2298.3,1737.4-2297.8,1737.4-2297.2L1737.4-2297.2z"/>
	<path id="Path_29356" class="st7" d="M1769.9-2243.9v5.8c0,4.2-3.4,7.7-7.7,7.7H1731c-4.3,0-7.7-3.4-7.7-7.7v-5.8
		c0-4.3,3.5-7.7,7.7-7.7h31.3C1766.5-2251.7,1769.9-2248.2,1769.9-2243.9C1769.9-2244,1769.9-2244,1769.9-2243.9z"/>
	<path id="Path_29357" class="st8" d="M1769.9-2243.9v5.8c0,4.2-3.4,7.7-7.7,7.7H1731c-4.3,0-7.7-3.4-7.7-7.7v-2.6
		c20.9,1.7,32.5-6.2,37.4-10.9h1.6C1766.5-2251.7,1769.9-2248.2,1769.9-2243.9z"/>
	<path id="Path_29358" class="st0" d="M1816-2157.4v9.2c0,2.1-1.7,3.7-3.7,3.7h-131.5c-2,0-3.7-1.7-3.7-3.7v-9.2
		c0-0.9,0.3-1.7,0.8-2.4l42.6-50.5c0.1-0.1,0.2-0.3,0.4-0.4c0.7-0.6,1.5-0.9,2.4-0.9h46.2c0.9,0,1.7,0.3,2.4,0.9
		c0.2,0.1,0.3,0.2,0.4,0.4l42.6,50.5C1815.7-2159.1,1816-2158.3,1816-2157.4z"/>
	<rect id="Rectangle_338" x="1721" y="-2221.9" class="st0" width="51" height="19.9"/>
	<path id="Path_29359" class="st1" d="M1816-2157.4v9.2c0,2.1-1.7,3.7-3.7,3.7h-45.1c17.8-14.5,9.9-46.3,2.4-57.5
		c-0.4-0.6-0.8-1.1-1.1-1.6c-2.6-3.1-6.6-5.9-11.3-8.1c-13.8-6.7-32.8-9.8-32.8-9.8l0.1-0.4h47.6v11.2c0.2,0.1,0.3,0.2,0.4,0.4
		l42.6,50.5C1815.7-2159.1,1816-2158.3,1816-2157.4z"/>
	<path id="Path_29360" class="st9" d="M1773-2219h-52.9c-2.8,0-5-2.2-5-5c0,0,0,0,0,0v-8.8c0-2.8,2.2-5,5-5c0,0,0,0,0,0h52.9
		c2.8,0,5,2.2,5,5c0,0,0,0,0,0v8.7C1778.1-2221.3,1775.9-2219,1773-2219C1773.1-2219,1773-2219,1773-2219z"/>
	<path id="Path_29361" class="st10" d="M1807.3-2152.5c0,1.5-1.4,2.6-3.2,2.6H1689c-1.7,0-3.2-1.2-3.2-2.6l0.5-6.4
		c0-0.6,0.3-1.3,0.7-1.7l20.2-23.5c7.3-1.4,15.4-2.1,22.5-0.7c18.5,3.7,20.5,11.1,33.6,11.3c4.9,0,9.8-0.7,14.4-2.1
		c4-1.2,7.9-3,11.5-5.2l16.7,20.1c0.5,0.4,0.8,1,0.7,1.7L1807.3-2152.5z"/>
	<path id="Path_29362" class="st11" d="M1807.3-2152.5c0,1.5-1.4,2.6-3.2,2.6h-31.9c5-7.2,6.3-16.5,5.6-25.5c4-1.2,7.9-3,11.5-5.2
		l16.7,20.1c0.5,0.4,0.8,1,0.7,1.7L1807.3-2152.5z"/>
	<circle id="Ellipse_442" class="st12" cx="1711.7" cy="-2170.9" r="5.7"/>
	<circle id="Ellipse_443" class="st12" cx="1769.9" cy="-2155.8" r="3.8"/>
	<circle id="Ellipse_444" class="st1" cx="1756" cy="-2187.6" r="7.3"/>
	<circle id="Ellipse_445" class="st1" cx="1738.8" cy="-2195.5" r="3.9"/>
	<circle id="Ellipse_446" class="st1" cx="1751.5" cy="-2203.4" r="2.8"/>
	<g id="Group_1376" transform="translate(1052.636 -2145.235)">
		<path id="Path_29012" class="st7" d="M768.4,0.3c0-0.2-171.9-0.3-384.2-0.3S0,0.1,0,0.3s172,0.3,384.2,0.3S768.4,0.5,768.4,0.3z"
			/>
	</g>
	<path id="Path_29313" class="st0" d="M1305.4-2294.3h-116.1c-3.6,0-6.5-2.9-6.5-6.4c0-1.2,0.3-2.4,1-3.5l48.3-75.2
		c0.9-1.3,1.3-2.9,1.3-4.5l0-23.1h27.8l0,23.1c0,1.6,0.5,3.1,1.3,4.5l48.3,75.2c1.9,3,0.9,7-2.1,8.9
		C1307.8-2294.7,1306.6-2294.3,1305.4-2294.3z"/>
	<path id="Path_29314" class="st0" d="M1235.3-2403.6c0,0,18.4-1.8,18.6,10.6c0.2,12.4,5.5-16.6,5.5-16.6l-24.1,1.4L1235.3-2403.6z"
		/>
	<path id="Path_29315" class="st1" d="M1305.4-2294.3h-44.1c8.8-7.5,8.4-16.4,9.6-25.5c1.9-14.3-0.8-34.6-16.8-59.6
		c-0.8-3.3-0.2-21.5-0.1-27.6h7.1l0,23.1c0,1.6,0.5,3.2,1.3,4.5l48.3,75.2c1.9,3,1,7-2,8.9
		C1307.9-2294.7,1306.7-2294.3,1305.4-2294.3z"/>
	<path id="Path_29316" class="st7" d="M1297.5-2299.9h-100.7c-4.5,0-6-3.3-3.6-6.8l22.1-34.7c3.1-0.7,6.3-1,9.4-0.8
		c13.9,1.3,17.5,7.9,32,7.1c4.1-0.2,8.2-1,12.2-2.3c0.9-0.3,1.7-0.6,2.5-0.9c2.6-1.1,5.1-2.5,7.4-4.2l22.3,35.8
		C1303.4-2303.1,1302-2299.9,1297.5-2299.9z"/>
	<path id="Path_29317" class="st7" d="M1297.5-2299.9h-31.2c3.7-4.7,6-25.4,4.5-38.3c0.9-0.3,6.3-2.4,8-4.2l22.3,35.8
		C1303.4-2303.1,1302-2299.9,1297.5-2299.9z"/>
	<path id="Path_29318" class="st3" d="M1260.9-2403.6h-27c-3.6,0-6.6-2.9-6.6-6.6v-0.6c0-3.6,2.9-6.6,6.6-6.6h27
		c3.6,0,6.6,2.9,6.6,6.6v0.6C1267.4-2406.5,1264.5-2403.6,1260.9-2403.6z"/>
	<circle id="Ellipse_432" class="st8" cx="1216.9" cy="-2314.2" r="4.5"/>
	<circle id="Ellipse_433" class="st1" cx="1258.8" cy="-2353.4" r="4.5"/>
	<circle id="Ellipse_434" class="st8" cx="1267.4" cy="-2310.1" r="4.9"/>
	<circle id="Ellipse_435" class="st8" cx="1250.6" cy="-2324.8" r="6.1"/>
	<circle id="Ellipse_436" class="st1" cx="1235.4" cy="-2363.5" r="6.1"/>
	<g id="Group_1491" transform="translate(1092.945 -2387.699)">
		<path id="Path_29319" class="st3" d="M1.8,3.5h129c1,0,1.8-0.8,1.8-1.8c0,0,0,0,0,0c0-1-0.8-1.8-1.8-1.8H1.8C0.8,0,0,0.8,0,1.8
			c0,0,0,0,0,0C0,2.7,0.8,3.5,1.8,3.5z"/>
	</g>
	<path id="Path_29320" class="st9" d="M1067.6-2144.9h101.1c0-16.3-13.2-29.5-29.5-29.5h-42
		C1080.9-2174.5,1067.7-2161.3,1067.6-2144.9C1067.6-2145,1067.6-2145,1067.6-2144.9z"/>
	<g id="Group_1492" transform="translate(1114.633 -2460.407)">
		<path id="Path_29321" class="st9" d="M0,3.4v297.3c0,1.9,1.7,3.5,3.6,3.4c1.9,0,3.4-1.6,3.4-3.4V3.4C7,1.5,5.4,0,3.5,0
			C2.6,0,1.7,0.4,1,1c0,0,0,0,0,0c0,0,0,0,0,0C0.4,1.6,0,2.5,0,3.4z"/>
	</g>
	<rect id="Rectangle_337" x="1108.1" y="-2462.1" class="st9" width="20" height="8.5"/>
	<path id="Path_29322" class="st3" d="M1114.6-2173.7c2.2-0.5,3.5-0.8,3.5-0.8v-279.2c-2.1-2.1-2.7-4.1-2.5-5.8c0,0,0,0,0,0
		c0,0,0,0,0,0c0.1-1,0.4-1.9,1-2.7h-8.5v8.5h6.5v279.1h-17.4c-16.3,0-29.5,13.2-29.6,29.5h29.6
		C1075.2-2162.1,1104.1-2171.1,1114.6-2173.7z"/>
	<path id="Path_29323" class="st9" d="M1223.6-2386.2v0.4c0,2.8,2.2,5.1,5,5.1c0,0,0,0,0.1,0h37.4c1.2,0,2.3-0.4,3.2-1.2h0
		c1.1-1,1.8-2.4,1.8-3.9v-0.4c0-2.8-2.3-5.1-5.1-5.1c0,0,0,0,0,0h-37.4C1225.9-2391.3,1223.6-2389,1223.6-2386.2
		C1223.6-2386.2,1223.6-2386.2,1223.6-2386.2z"/>
	<path id="Path_29324" class="st9" d="M1108.1-2391.2v9.3c0,3,2.4,5.4,5.3,5.4c0,0,0,0,0,0h9.3c3,0,5.4-2.4,5.4-5.4c0,0,0,0,0,0
		v-9.3c0-3-2.4-5.4-5.4-5.4l0,0h-9.3C1110.5-2396.6,1108.1-2394.2,1108.1-2391.2C1108.1-2391.2,1108.1-2391.2,1108.1-2391.2z"/>
	<path id="Path_29325" class="st9" d="M1086.2-2392.3v11.5c0,2.4,1.9,4.3,4.2,4.3c0.6,0,1.1-0.1,1.6-0.3c0,0,0,0,0,0
		c1.6-0.7,2.6-2.2,2.6-4v-11.5c0-2.4-1.9-4.2-4.3-4.2c0,0,0,0,0,0c-0.6,0-1.2,0.1-1.8,0.4
		C1086.6-2394.3,1086.2-2393.4,1086.2-2392.3z"/>
	<path id="Path_29326" class="st3" d="M1108.1-2391.2v9.3c0,3,2.4,5.4,5.3,5.4c0,0,0,0,0,0h4.7c-6.8-11.7,0-20.1,0-20.1h-4.7
		C1110.5-2396.6,1108.1-2394.2,1108.1-2391.2z"/>
	<path id="Path_29327" class="st3" d="M1086.2-2392.3v11.5c0,2.4,1.9,4.3,4.2,4.3c0.6,0,1.1-0.1,1.6-0.3c-3.8-3.1-3.8-13.6-3.4-19.4
		C1086.6-2394.4,1086.2-2393.4,1086.2-2392.3z"/>
	<path id="Path_29328" class="st3" d="M1223.6-2386.2v0.4c0,2.8,2.2,5.1,5,5.1c0,0,0,0,0.1,0h37.4c1.2,0,2.3-0.4,3.2-1.2
		c-6.8,1.3-21.6,2.6-27.4-9.5h-13.3C1225.9-2391.3,1223.6-2389,1223.6-2386.2C1223.6-2386.2,1223.6-2386.2,1223.6-2386.2z"/>
	<g id="Group_1494" transform="translate(1252.253 -2201.907)">
		<path id="Path_29329" class="st13" d="M0.1,20.6C0,20.6,0,20.6,0.1,20.6L0,0.1C0,0,0,0,0.1,0c0,0,0.1,0,0.1,0.1c0,0,0,0,0,0
			L0.1,20.6C0.2,20.6,0.1,20.6,0.1,20.6z"/>
	</g>
	<path id="Path_29330" class="st0" d="M1291.1-2180.7v10.4h-77.6v-10.4c0-3.1,2.5-5.6,5.6-5.6h66.5
		C1288.6-2186.2,1291.1-2183.8,1291.1-2180.7C1291.1-2180.7,1291.1-2180.7,1291.1-2180.7z"/>
	<path id="Path_29331" class="st1" d="M1291.1-2180.7v10.4h-77.6v-3.2c17.6,1.4,55.4,2.4,70.4-12.8h1.6
		C1288.6-2186.2,1291.1-2183.8,1291.1-2180.7C1291.1-2180.7,1291.1-2180.7,1291.1-2180.7z"/>
	<path id="Path_29332" class="st0" d="M1302-2164.9v20h-99.3v-20c0-3.4,2.8-6.2,6.2-6.2h86.9C1299.2-2171.1,1302-2168.3,1302-2164.9
		z"/>
	<path id="Path_29333" class="st1" d="M1302-2164.9v20h-21.1c4-4.2,6-8.4,4.1-12.2c-7.5-14.8-71.6-14-71.6-14h82.5
		C1299.2-2171.1,1302-2168.3,1302-2164.9z"/>
	<path id="Path_29334" class="st10" d="M1253.2-2195.3c1.8,0,3.7-0.3,5.5-0.7c7.2-1.8,14.1-6.9,15.4-14.6
		c1.6-9.4-5.5-16.2-11.9-21.9c-5.3-4.6-12.1-10-11.3-17.9c-0.3,4.4-1.6,8.6-3.6,12.5c-3.7,6.6-11.7,9.2-15.2,15.8
		c-3.2,6.1-1.4,14.7,3.2,19.6C1239.9-2197.7,1246.4-2195.1,1253.2-2195.3z"/>
	<path id="Path_29335" class="st10" d="M1252.7-2195c0.9,0,1.9-0.2,2.8-0.4c4.1-1.2,7.1-4.6,7.8-8.8c0.8-5.6-2.8-9.7-6-13.1
		c-2.7-2.8-6.1-6-5.7-10.7c-0.2,2.6-0.8,5.1-1.8,7.5c-1.9,4-5.9,5.5-7.7,9.5c-1.6,3.7-0.7,8.8,1.6,11.8
		C1245.9-2196.5,1249.2-2194.9,1252.7-2195z"/>
	<path id="Path_29336" class="st7" d="M1297.2-2160.2v10.7h-89.7v-10.7c0-2.5,2-4.5,4.4-4.5c0,0,0,0,0,0h80.8
		C1295.2-2164.7,1297.2-2162.7,1297.2-2160.2z"/>
	<path id="Path_29337" class="st8" d="M1297.2-2160.2v10.7h-12.9c1.4-2.6,1.8-5.2,0.6-7.6c-1.6-3.2-6-5.7-11.8-7.6h19.7
		C1295.2-2164.7,1297.2-2162.7,1297.2-2160.2C1297.2-2160.2,1297.2-2160.2,1297.2-2160.2z"/>
	<path id="Path_29338" class="st7" d="M1272.2-2454.7c0,9.9-8,17.8-17.9,17.9c-2.1,0-4.2-0.4-6.2-1.2h0c-0.6-0.2-1.1-0.5-1.7-0.7
		c-4,5.5-11.8,6.7-17.3,2.7c-5.5-4-6.7-11.8-2.7-17.3c0.4-0.6,0.9-1.1,1.4-1.6c-2.4-2.5-3.8-5.9-3.8-9.4c0-7.1,5.4-13,12.4-13.6
		c-0.2-1-0.3-2-0.3-3c0-3.5,1.4-6.9,4-9.3c-3.7-1.6-6-5.3-6.1-9.3c0-5.6,4.5-10.1,10.1-10.1c0,0,0,0,0,0c0.8,0,1.6,0.1,2.4,0.3
		c5.4,1.3,8.7,6.7,7.5,12.1c-0.3,1.4-0.9,2.6-1.8,3.7c6.9,1.7,11.1,8.8,9.4,15.7c-0.6,2.2-1.7,4.2-3.2,5.8
		C1266.5-2470.1,1272.3-2462.9,1272.2-2454.7z"/>
	<path id="Path_29363" class="st7" d="M1262.1-2529c3.7,0,6.7,3,6.7,6.7c0,3.7-3,6.7-6.7,6.7s-6.7-3-6.7-6.7c0,0,0,0,0,0
		C1255.3-2526,1258.4-2529,1262.1-2529z"/>
	<path id="Path_29339" class="st8" d="M1272.2-2454.7c0,9.9-8,17.8-17.9,17.9c-2.1,0-4.2-0.4-6.2-1.2c22-16.1,0-31.9,0-31.9
		c4.8-2.4,7.7-7.5,7.1-12.9c-0.7-6-9.9-9.3-9.9-9.3c6.7-5.9,3.2-13.8,1.2-17.3c5.4,1.3,8.7,6.7,7.5,12.1c-0.3,1.4-0.9,2.6-1.8,3.7
		c6.9,1.7,11.1,8.8,9.4,15.7c-0.6,2.2-1.7,4.2-3.2,5.8C1266.5-2470.1,1272.2-2462.9,1272.2-2454.7z"/>
	<path id="Path_29340" class="st8" d="M1263.1-2528.9c1,1.2,1.5,2.7,1.5,4.2c0,3.7-3,6.7-6.7,6.7c0,0,0,0,0,0c-0.3,0-0.7-0.1-1-0.1
		c2.3,2.9,6.5,3.4,9.4,1.1c2.9-2.3,3.4-6.5,1.1-9.4C1266.2-2527.8,1264.7-2528.7,1263.1-2528.9L1263.1-2528.9z"/>
	<g id="Group_1395" transform="translate(1273.835 -2338.621)">
		<path id="Path_29013" class="st10" d="M84.8,106.3L43,64.4l21-38.6C85-1.1,129.4,0.6,129.4,0.6c21.9-1.5,44-0.2,65.5,4
			c35.3,6.9,32.5,30.3,32.5,30.3l4.7,86.6l5.1,70.4l-130.1,2.6L84.8,106.3"/>
		<path id="Path_29014" class="st10" d="M155,190.3l-116.6,1.4C10.4,192-8.3,163,3.7,137.6l49.9-92.5L99,75.8l-31,64.3l94.5,1.7
			L155,190.3z"/>
		<path id="Path_29015" class="st10" d="M223.3,20.7l93.6,144.5l-54.6,3.6c0,0-32.6-51.4-31.8-50.3
			C231.8,120.4,223.3,20.7,223.3,20.7z"/>
		<path id="Path_29016" class="st10" d="M81.2,112.5"/>
		<g id="Group_1378" transform="translate(81.018 17.615)">
			<path id="Path_29017" class="st7" d="M15.5,66.5c0-0.2,0.1-0.5,0.1-0.7c0.1-0.6,0.3-1.2,0.6-2.1c0.4-1.8,1.1-4.4,1.7-7.7
				c0.8-3.8,1.4-7.7,1.8-11.6c0.6-4.7,0.6-9.5,0-14.2c-0.7-4.7-2.4-9.2-4.8-13.3c-2-3.3-4.3-6.5-6.9-9.4c-1.8-2-3.7-3.8-5.7-5.5
				C0.8,0.7,0,0.1,0,0c0.2,0.1,0.5,0.3,0.7,0.4c0.4,0.3,1,0.7,1.7,1.2c2.1,1.6,4.1,3.4,5.8,5.4c2.8,2.8,5.2,6,7.2,9.4
				c2.5,4.2,4.1,8.8,5,13.6c0.6,4.8,0.5,9.6-0.1,14.4c-0.6,4.4-1.2,8.3-1.9,11.6s-1.4,5.9-1.9,7.7c-0.1,0.7-0.4,1.4-0.7,2.1
				C15.6,66.1,15.6,66.3,15.5,66.5z"/>
		</g>
		<g id="Group_1379" transform="translate(67.743 89.11)">
			<path id="Path_29018" class="st7" d="M25,0c0,0-0.3,0.8-0.8,2.1c-0.6,1.4-1.4,3.2-2.5,5.5c-2.1,4.7-5.1,11.2-8.6,18.3
				S6.4,39.3,4,43.8c-1.2,2.2-2.2,4.1-2.9,5.4S0,51.2,0,51.2s0.3-0.7,1-2.1s1.7-3.2,2.8-5.4l9-18c3.5-7.1,6.5-13.4,8.7-18.1
				c1.1-2.2,1.9-4,2.6-5.5C24.3,1.4,24.7,0.7,25,0z"/>
		</g>
		<g id="Group_1380" transform="translate(41.191 139.723)">
			<path id="Path_29019" class="st7" d="M113.8,50.6v-1c0-0.7,0.1-1.5,0.3-2.8c0.3-2.5,0.7-5.9,1.1-10.4c1-9,2.5-21.6,4.1-36.4
				l0.3,0.4H85.2c-23.5,0-44.8-0.1-60.3-0.1c-7.6,0-14-0.1-18.3-0.1l0,0c4.4,0,10.6,0,18.3-0.1c15.5,0,36.8,0,60.3-0.1H120v0.4
				c-1.8,14.8-3.3,27.4-4.4,36.4c-0.6,4.4-1,7.9-1.4,10.4c-0.1,1.1-0.3,2.1-0.4,2.8c0,0.2-0.1,0.5-0.1,0.7
				C113.8,50.5,113.8,50.6,113.8,50.6z"/>
		</g>
		<g id="Group_1381" transform="translate(49.489 124.901)">
			<path id="Path_29020" class="st7" d="M19.2,16.2c-0.1,0-0.8-1.1-2.4-2.9C15,11,12.9,8.8,10.6,6.9C8.4,5,5.9,3.3,3.3,1.8
				C1.4,0.7,0,0.2,0,0s1.4,0.3,3.5,1.4c2.7,1.3,5.3,3,7.6,5c2.3,2,4.4,4.2,6.2,6.6C18.7,15,19.4,16.2,19.2,16.2z"/>
		</g>
		<g id="Group_1382" transform="translate(226.774 31.444)">
			<path id="Path_29021" class="st7" d="M7.3,118.8c-0.1-0.4-0.2-0.8-0.1-1.2c-0.1-0.8-0.3-1.9-0.4-3.5c-0.3-3-0.7-7.3-1.2-12.7
				c-1-10.6-2.1-25.6-3-41.9s-1.7-31.3-2.1-42C0.3,12,0.1,7.7,0,4.7V0c0,0.4,0.1,0.8,0.1,1.2c0,0.8,0.1,2.1,0.1,3.5
				c0.1,3,0.4,7.5,0.6,12.7C1.4,28.2,2.1,43,3,59.3S5,90.6,5.8,101.2c0.4,5.3,0.7,9.7,1,12.7c0.1,1.4,0.1,2.6,0.3,3.5
				C7.2,117.9,7.3,118.3,7.3,118.8z"/>
		</g>
		<g id="Group_1383" transform="translate(114.899 34.071)">
			<path id="Path_29022" class="st14" d="M15.1,37.6c0,0,0-0.7,0.1-1.9c0.1-1.4,0.4-3,0.7-5.3c0.6-4.6,1.4-10.8,2.4-18.1l0.6,0.3
				c-2.8,1.9-5.8,4-9,6.2s-6.2,4.4-9.1,6.4L0,25.6l0.1-0.8c1.1-7.2,2.1-13.4,2.8-17.8C3.3,4.8,3.6,3,3.7,1.8C4,0.6,4,0,4.1,0
				c0,0,0,0.7-0.1,1.9C3.9,3.2,3.6,5,3.3,7.2c-0.7,4.6-1.5,10.8-2.5,18l-0.6-0.3C3,23,6.2,20.7,9.4,18.5s6.2-4.3,9-6.2l0.7-0.4
				l-0.1,0.8c-1.1,7.2-1.9,13.4-2.6,18c-0.3,2.2-0.6,3.9-0.8,5.3C15.3,36.9,15.2,37.6,15.1,37.6z"/>
		</g>
		<g id="Group_1384" transform="translate(146.264 57.58)">
			<path id="Path_29023" class="st14" d="M35.8,19.6c-0.5-0.4-1-0.9-1.4-1.4c-1-1-2.1-2.2-3.6-3.9c-3.2-3.3-7.5-8-12.3-13.4l0.6-0.1
				c-0.3,3.5-0.6,7.1-1,10.9c-0.3,3.9-0.7,7.6-1,11.1v0.8l-0.6-0.6c-4.8-5.4-9-10.1-12-13.6C3.2,7.9,2,6.6,1.1,5.5
				C0.3,4.6-0.1,4.1,0,4c0.5,0.4,1,0.9,1.4,1.4c1,1,2.1,2.2,3.6,3.9c3,3.3,7.3,8,12.2,13.4l-0.6,0.1c0.3-3.5,0.6-7.2,1-11.1
				c0.3-3.9,0.7-7.5,1-10.9V0l0.6,0.6c4.8,5.4,9.1,10.1,12.2,13.6c1.4,1.7,2.6,2.9,3.5,4C35.4,19.1,35.8,19.6,35.8,19.6z"/>
		</g>
		<g id="Group_1385" transform="translate(193.723 75.419)">
			<path id="Path_29024" class="st14" d="M14.5,0c0,0-0.3,0.6-1,1.7s-1.7,2.6-2.8,4.4C8.3,10,4.8,15.2,1,21.4l-0.3-0.6
				c3.3-0.6,7.1-1.2,10.8-1.8c3.9-0.7,7.5-1.2,10.9-1.8l0.8-0.1l-0.4,0.7c-4,6.1-7.6,11.2-10.1,15.1c-1.2,1.8-2.2,3.2-2.9,4.3
				c-0.7,1-1.1,1.5-1.1,1.5s0.3-0.6,1-1.7s1.7-2.6,2.8-4.4c2.5-3.9,5.9-9.1,9.8-15.2l0.3,0.6c-3.5,0.6-7.1,1.2-10.9,1.9
				c-3.7,0.7-7.5,1.2-10.8,1.8L0,21.8l0.4-0.7c4-6.1,7.5-11.3,10.1-15.2c1.2-1.8,2.2-3.3,2.9-4.3C14.1,0.6,14.5,0,14.5,0z"/>
		</g>
		<g id="Group_1386" transform="translate(158.875 102.247)">
			<path id="Path_29025" class="st14" d="M14.5,0c0,0-0.3,0.6-1,1.7s-1.7,2.6-2.8,4.4C8.3,10,4.8,15.2,1,21.4l-0.3-0.6
				c3.3-0.6,7.1-1.2,10.8-1.8c3.9-0.7,7.5-1.2,10.9-1.8l0.8-0.1l-0.4,0.7c-4,6.1-7.6,11.2-10.1,15.1c-1.2,1.8-2.2,3.2-2.9,4.3
				c-0.7,1-1.1,1.5-1.1,1.5s0.3-0.6,1-1.7s1.7-2.6,2.8-4.4c2.5-3.9,5.9-9.1,9.8-15.2l0.3,0.6c-3.5,0.6-7.1,1.2-10.9,1.9
				c-3.7,0.7-7.5,1.2-10.8,1.8L0,21.8l0.4-0.7c4-6.1,7.5-11.3,10.1-15.2c1.2-1.8,2.2-3.3,2.9-4.3C13.7,1.1,14.1,0.5,14.5,0z"/>
		</g>
		<g id="Group_1387" transform="translate(234.242 75.004)">
			<path id="Path_29026" class="st14" d="M14.5,0c0,0-0.3,0.6-1,1.7s-1.7,2.6-2.8,4.4C8.3,10,4.8,15.2,1,21.4l-0.3-0.6
				c3.3-0.6,7.1-1.2,10.8-1.8c3.9-0.7,7.5-1.2,10.9-1.8l0.8-0.1l-0.4,0.7c-4,6.1-7.6,11.2-10.1,15.1c-1.2,1.8-2.2,3.2-2.9,4.3
				c-0.7,1-1.1,1.5-1.1,1.5s0.3-0.6,1-1.7s1.7-2.6,2.8-4.4c2.5-3.9,5.9-9.1,9.8-15.2l0.3,0.6c-3.5,0.6-7.1,1.2-10.9,1.9
				c-3.7,0.7-7.5,1.2-10.8,1.8L0,21.8l0.4-0.7c4-6.1,7.5-11.3,10.1-15.2c1.2-1.8,2.2-3.3,2.9-4.3C14,0.6,14.4,0,14.5,0z"/>
		</g>
		<g id="Group_1388" transform="translate(57.924 52.878)">
			<path id="Path_29027" class="st14" d="M14.5,0c0,0-0.3,0.6-1,1.7s-1.7,2.6-2.8,4.4C8.3,10,4.8,15.2,1,21.4l-0.3-0.6
				c3.3-0.6,7.1-1.2,10.8-1.8c3.9-0.7,7.5-1.2,10.9-1.8l0.8-0.1l-0.4,0.7c-4,6.1-7.6,11.2-10.1,15.1c-1.2,1.8-2.2,3.2-2.9,4.3
				c-0.7,1-1.1,1.5-1.1,1.5s0.3-0.6,1-1.7s1.7-2.6,2.8-4.4c2.5-3.9,5.9-9.1,9.8-15.2l0.3,0.6c-3.5,0.6-7.1,1.2-10.9,1.9
				c-3.7,0.7-7.5,1.2-10.8,1.8L0,21.8l0.4-0.7c4-6.1,7.5-11.3,10.1-15.2c1.2-1.8,2.2-3.3,2.9-4.3C14.1,0.6,14.5,0,14.5,0z"/>
		</g>
		<g id="Group_1389" transform="translate(17.821 153.414)">
			<path id="Path_29028" class="st14" d="M0,2.9c0,0,0.4,0.4,1.2,1.4s1.9,2.4,3.3,4c2.9,3.6,6.9,8.4,11.5,14.1l-0.6,0.1
				c0.6-3.3,1-7.1,1.5-10.8c0.6-3.9,1.1-7.6,1.7-10.9L18.8,0l0.6,0.7c4.4,5.7,8.3,10.6,11.2,14.2c1.2,1.7,2.4,3.2,3.2,4.1
				c0.7,1,1.1,1.5,1.1,1.5s-0.4-0.4-1.2-1.4s-1.9-2.4-3.3-4c-2.9-3.6-6.8-8.4-11.3-14.1L19.5,1c-0.6,3.5-1.1,7.1-1.7,10.9
				c-0.6,3.7-1.1,7.5-1.7,10.8L16,23.5L15.5,23C10.9,17.3,7.1,12.3,4.1,8.7C2.8,7,1.8,5.5,1,4.6C0.3,3.5,0,2.9,0,2.9z"/>
		</g>
		<g id="Group_1390" transform="translate(108.123 89.325)">
			<path id="Path_29029" class="st14" d="M34.6,0.1c0,0-0.7,0.1-1.9,0.3c-1.4,0.1-3,0.3-5.3,0.4C22.8,1,16.5,1.6,9.3,2.1l0.3-0.6
				c2.5,2.4,5.1,4.8,8,7.5c2.8,2.6,5.5,5.3,8,7.6l0.6,0.6h-0.8c-7.2,0.4-13.6,0.7-18.1,1c-2.2,0.1-3.9,0.1-5.3,0.3H0
				c0,0,0.7-0.1,1.9-0.3c1.4-0.1,3-0.3,5.3-0.4c4.6-0.3,10.8-0.7,18.1-1.2L25,17.1c-2.5-2.4-5.3-5-8-7.6S11.5,4.3,9.1,2L8.6,1.4h0.8
				C16.7,1,23,0.6,27.5,0.3c2.2-0.1,3.9-0.1,5.3-0.3C33.9,0.1,34.6-0.1,34.6,0.1z"/>
		</g>
		<g id="Group_1391" transform="translate(111.995 155.903)">
			<path id="Path_29030" class="st14" d="M0,3.2C0.5,3.6,0.9,4,1.2,4.6c0.8,1,2.1,2.4,3.5,4c3,3.5,7.1,8.3,11.8,14l-0.6,0.1
				c0.4-3.3,0.8-7.1,1.4-10.8c0.6-3.9,1-7.6,1.4-11.1L18.8,0l0.6,0.6c4.6,5.7,8.6,10.5,11.5,14.1c1.4,1.7,2.5,3,3.3,4.1
				c0.7,1,1.1,1.5,1.1,1.5s-0.4-0.4-1.2-1.4s-1.9-2.4-3.5-4c-2.9-3.5-6.9-8.3-11.6-13.8L19.5,1c-0.4,3.5-1,7.2-1.4,11.1
				c-0.6,3.7-1,7.5-1.4,10.8l-0.1,0.8L16,23.1C11.3,17.4,7.3,12.6,4.4,9C3,7.3,1.9,5.9,1.1,4.8C0.4,3.7,0,3.2,0,3.2z"/>
		</g>
		<g id="Group_1392" transform="translate(22.661 107.917)">
			<path id="Path_29031" class="st14" d="M34.6,0c0,0-0.7,0.1-1.9,0.3c-1.4,0.1-3,0.3-5.3,0.4C22.8,1,16.5,1.5,9.3,2.1l0.3-0.6
				c2.5,2.4,5.1,4.8,8,7.5c2.8,2.6,5.5,5.3,8,7.6l0.6,0.6h-0.8c-7.2,0.4-13.6,0.7-18.1,1c-2.2,0.1-3.9,0.1-5.3,0.3H0
				c0,0,0.7-0.1,1.9-0.3c1.4-0.1,3-0.3,5.3-0.4c4.6-0.3,10.8-0.7,18.1-1.2L25,17c-2.5-2.4-5.3-5-8-7.6s-5.5-5.1-7.9-7.5L8.6,1.4h0.8
				C16.7,1,23,0.6,27.5,0.3c2.2-0.1,3.9-0.1,5.3-0.3H34.6z"/>
		</g>
		<g id="Group_1393" transform="translate(69.679 157.424)">
			<path id="Path_29032" class="st14" d="M34.6,0c0,0-0.7,0.1-1.9,0.3c-1.4,0.1-3,0.3-5.3,0.4C22.8,1,16.5,1.5,9.3,2.1l0.3-0.6
				c2.5,2.4,5.1,4.8,8,7.5c2.8,2.6,5.5,5.3,8,7.6l0.6,0.6h-0.8c-7.2,0.4-13.6,0.7-18.1,1c-2.2,0.1-3.9,0.1-5.3,0.3H0
				c0,0,0.7-0.1,1.9-0.3c1.4-0.1,3-0.3,5.3-0.4c4.6-0.3,10.8-0.7,18.1-1.2L25,17c-2.5-2.4-5.3-5-8-7.6s-5.5-5.1-7.9-7.5L8.6,1.4h0.8
				C16.7,1,23,0.6,27.5,0.3c2.2-0.1,3.9-0.1,5.3-0.3H34.6z"/>
		</g>
		<g id="Group_1394" transform="translate(175.884 31.444)">
			<path id="Path_29033" class="st14" d="M34.6,0c0,0-0.7,0.1-1.9,0.3c-1.4,0.1-3,0.3-5.3,0.4C22.8,1,16.5,1.5,9.3,2.1l0.3-0.6
				c2.5,2.4,5.1,4.8,8,7.5c2.8,2.6,5.5,5.3,8,7.6l0.6,0.6h-0.8c-7.2,0.4-13.6,0.7-18.1,1c-2.2,0.1-3.9,0.1-5.3,0.3H0
				c0,0,0.7-0.1,1.9-0.3c1.4-0.1,3-0.3,5.3-0.4c4.6-0.3,10.8-0.7,18.1-1.2L25,17c-2.5-2.4-5.3-5-8-7.6s-5.5-5.1-7.9-7.5L8.6,1.4h0.8
				C16.7,1,23,0.6,27.5,0.3c2.2-0.1,3.9-0.1,5.3-0.3H34.6z"/>
		</g>
	</g>
	<g id="Group_1399" transform="translate(1429.667 -2189.978)">
		<path id="Path_29034" class="st15" d="M3,8.8c0,0,23.2-6.6,31-8.7c3-0.8,15.9,5.9,24.8,11.6c0,0,12.2,7.2,11.2,9.5
			c-1.1,2.5-5.5,1.9-12.7-1.4c0,0,2.5,7.3-2.4,7.2c0,0,2.5,7.9-2.2,8.7c-4.6,0.8-5.7-9.3-9.8-9.8c-4-0.6-12.4-1.1-12.4-1.1
			S23.4,36.4,18,37.3S0,36.6,0,36.6L3,8.8z"/>
		<g id="Group_1396" transform="translate(42.488 10.078)">
			
				<ellipse id="Ellipse_370" transform="matrix(0.5331 -0.8461 0.8461 0.5331 -0.6113 7.5552)" class="st16" cx="6.5" cy="4.3" rx="0.4" ry="7.5"/>
		</g>
		<g id="Group_1397" transform="translate(41.317 14.504)">
			
				<ellipse id="Ellipse_371" transform="matrix(0.419 -0.908 0.908 0.419 0.98 9.2368)" class="st16" cx="7.7" cy="3.9" rx="0.4" ry="8.3"/>
		</g>
		<g id="Group_1398" transform="translate(43.806 25.373)">
			
				<ellipse id="Ellipse_372" transform="matrix(0.1358 -0.9907 0.9907 0.1358 3.4339 6.1857)" class="st16" cx="5.3" cy="1.1" rx="0.4" ry="5.3"/>
		</g>
	</g>
	<g id="Group_1430" transform="translate(1383.186 -2488.141)">
		<g id="Group_1424">
			<path id="Path_29035" class="st7" d="M19.2,67c0.5,1.9-0.1,3.8-1.5,5.1c-1.5,1.2-3.5,1.4-5.3,0.6c-3.2-1.7-3.6-5.9-2.9-9.4
				c0.6-3.5,1.8-7.2,0.3-10.4c-1.1-2.5-3.6-4-5.4-5.9c-3.4-3.4-4.9-8.2-4.3-13C1,29.2,4.4,25.3,9,23.9c4.6-1.2,10.4,0.1,13.8-3.2
				c2.5-2.5,2.6-6.4,4.6-9.3c3-4.6,9.4-5.3,14.7-4.4c5.4,0.7,10.8,2.5,16,1.1c4.4-1.1,8-4.1,12-6.1c9.3-4,20-1.9,27.1,5.3
				c6.8,7.1,8.3,18.5,3.9,27.2c-1.5,3.2-4.1,5.8-7.3,7.3"/>
			<g id="Group_1415" transform="translate(17.717 27.951)">
				<g id="Group_1414">
					<g id="Group_1413">
						<g id="Group_1400">
							<path id="Path_29036" class="st15" d="M28.2,153.3L28.2,153.3c14.8,0,26.7-12.1,26.7-26.8c0,0,0-0.1,0-0.1l-0.4-25.4
								c0,0,21.3-2.1,22.8-23.2c1.4-21.2,0.4-70,0.4-70l0,0C53.8-4.2,25.3-2.2,3.3,12.9L0,15.1L1.7,127
								C1.7,141.6,13.6,153.4,28.2,153.3C28.2,153.3,28.2,153.3,28.2,153.3z"/>
						</g>
						<g id="Group_1404" transform="translate(65.523 35.722)">
							<g id="Group_1401" transform="translate(3.725 3.755)">
								<path id="Path_29037" class="st7" d="M2.8,6.4c-3.7-0.7-3.7-5.5,0-6.4h0.6c3.7,0.7,3.7,5.5,0,6.4L2.8,6.4z"/>
							</g>
							<g id="Group_1403">
								<g id="Group_1402">
									<path id="Path_29038" class="st7" d="M10.7,3.3C10.3,3.8,8.3,2,5.4,1.8C2.5,1.5,0.3,3.1,0,2.6c-0.1-0.1,0.3-0.8,1.2-1.5
										C2.5,0.3,4-0.1,5.6,0c1.5,0.1,3,0.7,4.1,1.7C10.5,2.5,10.8,3.2,10.7,3.3z"/>
								</g>
							</g>
						</g>
						<g id="Group_1408" transform="translate(33.716 36.552)">
							<g id="Group_1405" transform="translate(2.706 1.659)">
								<circle id="Ellipse_373" class="st7" cx="4.2" cy="4.2" r="3"/>
							</g>
							<g id="Group_1407">
								<g id="Group_1406">
									<path id="Path_29039" class="st7" d="M10.7,3.3C10.3,3.8,8.3,2,5.4,1.8C2.5,1.5,0.3,3.1,0,2.6c-0.1-0.1,0.3-0.8,1.2-1.5
										C2.5,0.3,4-0.1,5.6,0c1.5,0.1,3,0.7,4.1,1.7C10.5,2.5,10.8,3.2,10.7,3.3z"/>
								</g>
							</g>
						</g>
						<g id="Group_1410" transform="translate(54.426 39.199)">
							<g id="Group_1409">
								<path id="Path_29040" class="st7" d="M0.3,25.4c0-0.3,1.8-0.6,4.7-0.7c0.8,0,1.4-0.1,1.5-0.6c0-0.8-0.1-1.5-0.4-2.2
									c-0.7-1.9-1.2-4-1.9-6.1C1.4,7.3-0.4,0.1,0.1,0s3,6.8,5.7,15.4c0.7,2.1,1.2,4.1,1.8,6.1c0.5,1,0.6,2.1,0.3,3.2
									c-0.2,0.6-0.8,1-1.4,1.1c-0.4,0.1-0.8,0.1-1.2,0.1C2.1,25.9,0.3,25.7,0.3,25.4z"/>
							</g>
						</g>
						<g id="Group_1411" transform="translate(44.841 67.412)">
							<path id="Path_29041" class="st17" d="M0.2,0c4.4,2.3,9.2,4,14.1,5c0,0-3.7,5.3-9.7,2.6C-1.6,4.8,0.2,0,0.2,0z"/>
						</g>
						<g id="Group_1412" transform="translate(27.243 91.059)">
							<path id="Path_29042" class="st16" d="M27.2,9.4c0,0-13.4,0.4-27.2-9.4c0,0,5.7,15.6,27,14.8L27.2,9.4z"/>
						</g>
					</g>
				</g>
			</g>
			<path id="Path_29043" class="st7" d="M95.4,40.9c0,0-12.7,6.5-29.7-1.5c-11.1-5.3-24.1-7.7-26.8-5.4c-2.8,2.2-3.2,13.7-14,17.1
				c0,0,1.1,21.7-7.5,21c-8.7-0.6-3.9-34.3-3.9-34.3L34.5,27l23-4.8l21.8,2.6l16.9,4.3L95.4,40.9z"/>
			<g id="Group_1419" transform="translate(4.438 64.144)">
				<g id="Group_1416">
					<path id="Path_29044" class="st15" d="M14.7,0.9C14.2,0.8,0.3-4.2,0,10.3s14.2,11.9,14.4,11.5C14.4,21.4,14.7,0.9,14.7,0.9z"/>
				</g>
				<g id="Group_1418" transform="translate(3.737 4.529)">
					<g id="Group_1417">
						<path id="Path_29045" class="st16" d="M6.2,11.6C6,11.7,5.8,11.9,5.5,12c-0.6,0.2-1.3,0.2-1.9,0c-1.5-0.6-2.8-3-2.8-5.7
							c0-1.3,0.2-2.5,0.8-3.6c0.2-0.9,1-1.7,1.9-1.9C4.2,0.7,4.8,1,5.1,1.5C5.2,1.7,5.2,2,5.3,2.2C5.4,2,5.5,1.7,5.5,1.4
							C5.5,1,5.3,0.7,5,0.4C4.6,0.1,4.1,0,3.6,0C2.4,0.2,1.4,1,1,2.2c-0.6,1.2-1,2.6-1,4c0,2.9,1.5,5.7,3.6,6.4
							c0.8,0.2,1.6,0.1,2.4-0.3C6.2,12,6.4,11.6,6.2,11.6z"/>
					</g>
				</g>
			</g>
			<g id="Group_1420" transform="translate(11.627 19.351)">
				<path id="Path_29046" class="st7" d="M0,0.4c-0.1-0.1,2.4-0.8,5,0.1c2.8,1,4.1,3,3.9,3.2C8.7,3.8,7.2,2.2,4.7,1.2
					C3.2,0.7,1.6,0.4,0,0.4z"/>
			</g>
			<g id="Group_1421" transform="translate(19.857 11.007)">
				<path id="Path_29047" class="st7" d="M0.5,0c0.3,0-0.1,3,0.4,6.6S3.1,12.9,3,13c-0.5-0.5-0.9-1.1-1.2-1.7C1,9.9,0.5,8.4,0.2,6.8
					C-0.2,4.5-0.1,2.2,0.5,0z"/>
			</g>
			<g id="Group_1422" transform="translate(79.93 58.164)">
				<path id="Path_29048" class="st7" d="M0,1.9c-0.1-0.1,0.6-0.7,1.7-1.1C3.2,0.3,4.9,0,6.5,0c1.7,0,3.3,0.3,4.8,1
					c1.1,0.6,1.8,1,1.7,1.2c-0.1,0.4-2.9-0.7-6.5-0.7C3.1,1.2,0.2,2.4,0,1.9z"/>
			</g>
			<g id="Group_1423" transform="translate(47.57 55.121)">
				<path id="Path_29049" class="st7" d="M0,1.9c-0.1-0.1,0.6-0.7,1.7-1.1C3.2,0.3,4.9,0,6.5,0c1.7,0,3.3,0.3,4.8,1
					c1.1,0.6,1.8,1,1.7,1.2c-0.1,0.4-2.9-0.7-6.5-0.7C3.1,1.2,0.3,2.4,0,1.9z"/>
			</g>
		</g>
	</g>
	<path id="Path_29057" class="st7" d="M1548.7-2262.7l-45.8,113.5h-82.8v5.1h246.6l50.3-118.7H1548.7z"/>
	
		<ellipse id="Ellipse_377" transform="matrix(0.28 -0.96 0.96 0.28 3269.9321 -35.8145)" class="st9" cx="1611.1" cy="-2197.9" rx="10.8" ry="8.2"/>
</g>
</svg>
